# xmcd
#
# Track frame offsets: 
#        150
#        14505
#        32940
#        52335
#        67547
#        81975
#        99697
#        113797
#        127787
#        141505
#        155492
#        168837
#        181380
#        196125
#        210685
#        221715
#        232415
#        242775
#        253262
#        262475
#        274302
#        286425
#        305620
#        312122
#        316167
#        327707
#
# Disc length: 4541 seconds
#
# Revision: 0
# Processed by: cddbd v1.4PL0 Copyright (c) Steve Scherf et al.
# Submitted via: ExactAudioCopy v0.90a11
#
DISCID=9d11bb1a
DTITLE=Lead Belly - Complete Recorded Works 1939-1947 Volume 2 - C. Oc
DTITLE=tober 1943 To 25 April 1944 
DYEAR=1900
DGENRE=
TTITLE0=Cow Cow Yicky Yea-Out On The Western Plains
TTITLE1=Noted Rider-Big Fat Woman-Borrow Love And Go
TTITLE2=John Hardy
TTITLE3=Meeting At The Building-Talking Preaching-We Shall Walk Throug
TTITLE3=h The Valley
TTITLE4=Fiddlers Dream-Yallow Gal-Green Corn
TTITLE5=Bring Me Lil Water Silvy-Julia Ann Johnson-Line 'Em-Whoa Back 
TTITLE5=Buck
TTITLE6=Roberta
TTITLE7=Bill Brady
TTITLE8=Where Did You Sleep Last Night
TTITLE9=Yellow Gal
TTITLE10=When The Boys Were Out On The Western Plains
TTITLE11=Pretty Fowers In Your Back Yard
TTITLE12=In New Orleans
TTITLE13=John Hardy
TTITLE14=I've A Pretty Flowers (With Josh White)
TTITLE15=Don't Lie Buddy (With Josh White)
TTITLE16=How Do You Know-Don't Mind The Weather
TTITLE17=(What Are) Little Boys (Made Of)-Let Me Hold Your Hand (All F
TTITLE17=or You)-Polly Wolly (Polly) Wee
TTITLE18=Skip To My Lou-Christmas Day (It's Almost Day)
TTITLE19=Little Sally Walker-Ha Ha Thisaway-Red Bird
TTITLE20=Outskirts Of Town
TTITLE21=Red River-Black Girl (In The Pines)-Don't Miss Your Water Blu
TTITLE21=es
TTITLE22=Blind Lemon (Memorial Record)
TTITLE23=Leadbelly's Dance
TTITLE24=Mother's Blues (Little Children Blues) (With Josh White)
TTITLE25=Mo' Yet-(Little Boy) How Old Are You-There's A Limb On The Tr
TTITLE25=ee (Green Grass Grows All Around)
EXTD=
EXTT0=
EXTT1=
EXTT2=
EXTT3=
EXTT4=
EXTT5=
EXTT6=
EXTT7=
EXTT8=
EXTT9=
EXTT10=
EXTT11=
EXTT12=
EXTT13=
EXTT14=
EXTT15=
EXTT16=
EXTT17=
EXTT18=
EXTT19=
EXTT20=
EXTT21=
EXTT22=
EXTT23=
EXTT24=
EXTT25=
PLAYORDER=
